<svg width="382" height="524" viewBox="0 0 382 524" fill="none" xmlns="http://www.w3.org/2000/svg">
<g filter="url(#filter0_d_1250_505)">
<rect x="11" y="6" width="360" height="502.15" rx="13.4579" fill="white" fill-opacity="0.9" shape-rendering="crispEdges"/>
<rect x="11.8411" y="6.84112" width="358.318" height="500.467" rx="12.6168" stroke="#999999" stroke-width="1.68224" shape-rendering="crispEdges"/>
<rect x="36.6549" y="26.6071" width="308.692" height="460.935" rx="19.7664" stroke="#252525" stroke-width="0.841121"/>
<path d="M170.196 85.5576C193.521 77.0643 211.752 75.7287 225.723 78.7109C239.684 81.6914 249.425 88.9915 255.773 97.8428C262.128 106.702 265.092 117.128 265.462 126.351C265.833 135.602 263.595 143.524 259.693 147.465C259.276 147.886 259 148.44 259.022 149.086C259.092 151.071 259.414 153.435 259.784 156.005C260.156 158.584 260.578 161.382 260.857 164.269C261.418 170.05 261.397 176.115 259.29 181.349C257.196 186.55 253.019 190.982 245.143 193.481C237.238 195.989 225.602 196.551 208.627 193.939C208.433 193.91 208.22 193.904 208.021 193.928C173.065 198.019 146.265 190.896 130.952 179.951C123.294 174.478 118.543 168.075 117.028 161.673C115.52 155.294 117.206 148.846 122.566 143.194C123.21 142.516 123.411 141.488 123.01 140.619C117.904 129.564 118.044 114.24 125.144 102.482C132.216 90.7709 146.246 82.5208 169.108 85.6738C169.467 85.7233 169.857 85.6811 170.196 85.5576Z" fill="#E4E9FF" stroke="#252525"/>
<ellipse cx="3.43501" cy="8.24226" rx="3.43501" ry="8.24226" transform="matrix(0.970379 0.241589 -0.241255 0.970462 151.926 108.167)" fill="#252525"/>
<ellipse cx="3.86708" cy="6.20826" rx="3.86708" ry="6.20826" transform="matrix(0.999779 0.0210414 -0.0210105 0.999779 199.465 119.603)" fill="#252525"/>
<path d="M147.681 138.317C149.197 149.566 157.897 169.645 180.568 159.967C203.239 150.288 211.565 145.444 212.894 144.232" stroke="#252525"/>
</g>
<defs>
<filter id="filter0_d_1250_505" x="0.906542" y="0.953271" width="380.187" height="522.336" filterUnits="userSpaceOnUse" color-interpolation-filters="sRGB">
<feFlood flood-opacity="0" result="BackgroundImageFix"/>
<feColorMatrix in="SourceAlpha" type="matrix" values="0 0 0 0 0 0 0 0 0 0 0 0 0 0 0 0 0 0 127 0" result="hardAlpha"/>
<feOffset dy="5.04673"/>
<feGaussianBlur stdDeviation="5.04673"/>
<feComposite in2="hardAlpha" operator="out"/>
<feColorMatrix type="matrix" values="0 0 0 0 0 0 0 0 0 0 0 0 0 0 0 0 0 0 0.08 0"/>
<feBlend mode="normal" in2="BackgroundImageFix" result="effect1_dropShadow_1250_505"/>
<feBlend mode="normal" in="SourceGraphic" in2="effect1_dropShadow_1250_505" result="shape"/>
</filter>
</defs>
</svg>
