<svg width="452" height="621" viewBox="0 0 452 621" fill="none" xmlns="http://www.w3.org/2000/svg">
<g filter="url(#filter0_d_950_21)">
<rect x="12" y="6" width="428" height="597" rx="16" fill="white" fill-opacity="0.9" shape-rendering="crispEdges"/>
<rect x="13" y="7" width="426" height="595" rx="15" stroke="#999999" stroke-width="2" shape-rendering="crispEdges"/>
<rect x="42.5" y="30.5" width="367" height="548" rx="23.5" stroke="#252525"/>
<path d="M186.932 210.861C230.06 195.104 263.769 192.637 289.594 198.207C315.41 203.775 333.384 217.38 345.046 233.84C356.714 250.308 362.073 269.645 362.623 286.665C363.174 303.716 358.899 318.316 351.458 325.413C351.02 325.831 350.754 326.377 350.767 327.018C350.837 330.579 351.4 334.867 352.074 339.577C352.75 344.298 353.54 349.454 354.081 354.79C355.163 365.47 355.232 376.791 351.403 386.606C347.587 396.388 339.88 404.725 325.284 409.423C310.66 414.13 289.113 415.185 257.657 410.328C257.463 410.298 257.25 410.293 257.051 410.316C192.407 417.92 142.873 404.657 114.725 384.295C100.649 374.113 91.9551 362.182 89.3389 350.23C86.728 338.303 90.1525 326.277 100.468 315.82C101.127 315.152 101.34 314.112 100.92 313.241C91.1161 292.906 91.115 264.34 104.173 242.366C117.203 220.44 143.287 205 185.842 210.977C186.201 211.027 186.592 210.985 186.932 210.861Z" fill="#F5F5F5" stroke="#252525"/>
<ellipse cx="6.30134" cy="15.12" rx="6.30134" ry="15.12" transform="matrix(0.970379 0.241589 -0.241255 0.970462 153.91 252.603)" fill="#252525"/>
<ellipse cx="7.09395" cy="11.3887" rx="7.09395" ry="11.3887" transform="matrix(0.999779 0.0210414 -0.0210105 0.999779 241.117 273.579)" fill="#252525"/>
<path d="M146.124 307.91C148.905 328.546 164.865 365.381 206.454 347.626C248.042 329.871 263.316 320.986 265.754 318.762" stroke="#252525"/>
</g>
<defs>
<filter id="filter0_d_950_21" x="0" y="0" width="452" height="621" filterUnits="userSpaceOnUse" color-interpolation-filters="sRGB">
<feFlood flood-opacity="0" result="BackgroundImageFix"/>
<feColorMatrix in="SourceAlpha" type="matrix" values="0 0 0 0 0 0 0 0 0 0 0 0 0 0 0 0 0 0 127 0" result="hardAlpha"/>
<feOffset dy="6"/>
<feGaussianBlur stdDeviation="6"/>
<feComposite in2="hardAlpha" operator="out"/>
<feColorMatrix type="matrix" values="0 0 0 0 0 0 0 0 0 0 0 0 0 0 0 0 0 0 0.08 0"/>
<feBlend mode="normal" in2="BackgroundImageFix" result="effect1_dropShadow_950_21"/>
<feBlend mode="normal" in="SourceGraphic" in2="effect1_dropShadow_950_21" result="shape"/>
</filter>
</defs>
</svg>
